<mxfile host="app.diagrams.net" modified="2023-05-06T03:46:05.324Z" agent="Mozilla/5.0 (Windows NT 10.0; Win64; x64) AppleWebKit/537.36 (KHTML, like Gecko) Chrome/114.0.0.0 Safari/537.36 Edg/114.0.0.0" etag="jXZl2AL04NXJZ8W4DcT9" version="21.2.9" type="github">
  <diagram name="Page-1" id="RX7SiQDYN5AmBd_nu9ay">
    <mxGraphModel dx="1032" dy="519" grid="0" gridSize="10" guides="1" tooltips="1" connect="1" arrows="1" fold="1" page="0" pageScale="1" pageWidth="850" pageHeight="1100" math="0" shadow="0">
      <root>
        <mxCell id="0" />
        <mxCell id="1" parent="0" />
        <mxCell id="3G-kd2hUnnnF7EUFZI0f-11" value="" style="edgeStyle=orthogonalEdgeStyle;rounded=0;orthogonalLoop=1;jettySize=auto;html=1;" parent="1" source="3G-kd2hUnnnF7EUFZI0f-1" target="3G-kd2hUnnnF7EUFZI0f-3" edge="1">
          <mxGeometry relative="1" as="geometry" />
        </mxCell>
        <mxCell id="3G-kd2hUnnnF7EUFZI0f-12" value="" style="edgeStyle=orthogonalEdgeStyle;rounded=0;orthogonalLoop=1;jettySize=auto;html=1;" parent="1" source="3G-kd2hUnnnF7EUFZI0f-1" target="3G-kd2hUnnnF7EUFZI0f-4" edge="1">
          <mxGeometry relative="1" as="geometry" />
        </mxCell>
        <mxCell id="3G-kd2hUnnnF7EUFZI0f-15" style="edgeStyle=orthogonalEdgeStyle;rounded=0;orthogonalLoop=1;jettySize=auto;html=1;entryX=0;entryY=0.5;entryDx=0;entryDy=0;" parent="1" source="3G-kd2hUnnnF7EUFZI0f-1" target="3G-kd2hUnnnF7EUFZI0f-10" edge="1">
          <mxGeometry relative="1" as="geometry" />
        </mxCell>
        <mxCell id="3G-kd2hUnnnF7EUFZI0f-17" style="edgeStyle=orthogonalEdgeStyle;rounded=0;orthogonalLoop=1;jettySize=auto;html=1;entryX=0;entryY=0.5;entryDx=0;entryDy=0;" parent="1" source="3G-kd2hUnnnF7EUFZI0f-1" target="3G-kd2hUnnnF7EUFZI0f-9" edge="1">
          <mxGeometry relative="1" as="geometry" />
        </mxCell>
        <mxCell id="3G-kd2hUnnnF7EUFZI0f-1" value="用户" style="rounded=1;whiteSpace=wrap;html=1;fillColor=#d5e8d4;strokeColor=#82b366;" parent="1" vertex="1">
          <mxGeometry x="80" y="290" width="100" height="60" as="geometry" />
        </mxCell>
        <mxCell id="3G-kd2hUnnnF7EUFZI0f-16" style="edgeStyle=orthogonalEdgeStyle;rounded=0;orthogonalLoop=1;jettySize=auto;html=1;entryX=1;entryY=0.5;entryDx=0;entryDy=0;" parent="1" source="3G-kd2hUnnnF7EUFZI0f-2" target="3G-kd2hUnnnF7EUFZI0f-10" edge="1">
          <mxGeometry relative="1" as="geometry" />
        </mxCell>
        <mxCell id="3G-kd2hUnnnF7EUFZI0f-18" style="edgeStyle=orthogonalEdgeStyle;rounded=0;orthogonalLoop=1;jettySize=auto;html=1;entryX=1;entryY=0.5;entryDx=0;entryDy=0;" parent="1" source="3G-kd2hUnnnF7EUFZI0f-2" target="3G-kd2hUnnnF7EUFZI0f-9" edge="1">
          <mxGeometry relative="1" as="geometry" />
        </mxCell>
        <mxCell id="yN31cZQmIMzdVHUuI0S--1" value="" style="edgeStyle=orthogonalEdgeStyle;rounded=0;orthogonalLoop=1;jettySize=auto;html=1;" edge="1" parent="1" source="3G-kd2hUnnnF7EUFZI0f-2" target="3G-kd2hUnnnF7EUFZI0f-5">
          <mxGeometry relative="1" as="geometry" />
        </mxCell>
        <mxCell id="3G-kd2hUnnnF7EUFZI0f-2" value="医生" style="rounded=1;whiteSpace=wrap;html=1;fillColor=#fff2cc;strokeColor=#d6b656;" parent="1" vertex="1">
          <mxGeometry x="440" y="290" width="100" height="60" as="geometry" />
        </mxCell>
        <mxCell id="3G-kd2hUnnnF7EUFZI0f-3" value="药品" style="rounded=1;whiteSpace=wrap;html=1;" parent="1" vertex="1">
          <mxGeometry x="80" y="210" width="100" height="60" as="geometry" />
        </mxCell>
        <mxCell id="3G-kd2hUnnnF7EUFZI0f-4" value="订单" style="rounded=1;whiteSpace=wrap;html=1;" parent="1" vertex="1">
          <mxGeometry x="80" y="380" width="100" height="60" as="geometry" />
        </mxCell>
        <mxCell id="3G-kd2hUnnnF7EUFZI0f-5" value="科室" style="rounded=1;whiteSpace=wrap;html=1;" parent="1" vertex="1">
          <mxGeometry x="440" y="210" width="100" height="60" as="geometry" />
        </mxCell>
        <mxCell id="3G-kd2hUnnnF7EUFZI0f-6" value="医学知识" style="rounded=1;whiteSpace=wrap;html=1;" parent="1" vertex="1">
          <mxGeometry x="80" y="480" width="100" height="60" as="geometry" />
        </mxCell>
        <mxCell id="3G-kd2hUnnnF7EUFZI0f-7" value="新闻资讯" style="rounded=1;whiteSpace=wrap;html=1;" parent="1" vertex="1">
          <mxGeometry x="260" y="480" width="100" height="60" as="geometry" />
        </mxCell>
        <mxCell id="3G-kd2hUnnnF7EUFZI0f-8" value="留言反馈" style="rounded=1;whiteSpace=wrap;html=1;" parent="1" vertex="1">
          <mxGeometry x="440" y="480" width="100" height="60" as="geometry" />
        </mxCell>
        <mxCell id="3G-kd2hUnnnF7EUFZI0f-9" value="预约挂号" style="rounded=1;whiteSpace=wrap;html=1;" parent="1" vertex="1">
          <mxGeometry x="260" y="210" width="100" height="60" as="geometry" />
        </mxCell>
        <mxCell id="3G-kd2hUnnnF7EUFZI0f-10" value="医嘱" style="rounded=1;whiteSpace=wrap;html=1;" parent="1" vertex="1">
          <mxGeometry x="260" y="290" width="100" height="60" as="geometry" />
        </mxCell>
        <mxCell id="yN31cZQmIMzdVHUuI0S--116" value="" style="edgeStyle=orthogonalEdgeStyle;rounded=0;orthogonalLoop=1;jettySize=auto;html=1;endArrow=none;endFill=0;" edge="1" parent="1" source="yN31cZQmIMzdVHUuI0S--117" target="yN31cZQmIMzdVHUuI0S--136">
          <mxGeometry relative="1" as="geometry" />
        </mxCell>
        <mxCell id="yN31cZQmIMzdVHUuI0S--117" value="医生" style="rounded=0;whiteSpace=wrap;html=1;fillColor=#dae8fc;strokeColor=#6c8ebf;strokeWidth=2;" vertex="1" parent="1">
          <mxGeometry x="740" y="220" width="100" height="60" as="geometry" />
        </mxCell>
        <mxCell id="yN31cZQmIMzdVHUuI0S--121" value="预约挂号" style="rounded=0;whiteSpace=wrap;html=1;fillColor=#f5f5f5;fontColor=#333333;strokeColor=#666666;strokeWidth=2;" vertex="1" parent="1">
          <mxGeometry x="740" y="400" width="100" height="60" as="geometry" />
        </mxCell>
        <mxCell id="yN31cZQmIMzdVHUuI0S--125" value="用户名" style="ellipse;whiteSpace=wrap;html=1;" vertex="1" parent="1">
          <mxGeometry x="660" y="500" width="80" height="40" as="geometry" />
        </mxCell>
        <mxCell id="yN31cZQmIMzdVHUuI0S--126" value="宠物名" style="ellipse;whiteSpace=wrap;html=1;" vertex="1" parent="1">
          <mxGeometry x="750" y="500" width="80" height="40" as="geometry" />
        </mxCell>
        <mxCell id="yN31cZQmIMzdVHUuI0S--127" value="医生姓名" style="ellipse;whiteSpace=wrap;html=1;" vertex="1" parent="1">
          <mxGeometry x="840" y="500" width="80" height="40" as="geometry" />
        </mxCell>
        <mxCell id="yN31cZQmIMzdVHUuI0S--135" value="医生名" style="ellipse;whiteSpace=wrap;html=1;" vertex="1" parent="1">
          <mxGeometry x="660" y="140" width="80" height="40" as="geometry" />
        </mxCell>
        <mxCell id="yN31cZQmIMzdVHUuI0S--136" value="密码" style="ellipse;whiteSpace=wrap;html=1;" vertex="1" parent="1">
          <mxGeometry x="750" y="140" width="80" height="40" as="geometry" />
        </mxCell>
        <mxCell id="yN31cZQmIMzdVHUuI0S--137" value="联系方式" style="ellipse;whiteSpace=wrap;html=1;" vertex="1" parent="1">
          <mxGeometry x="840" y="140" width="80" height="40" as="geometry" />
        </mxCell>
        <mxCell id="yN31cZQmIMzdVHUuI0S--149" value="" style="endArrow=none;html=1;rounded=0;entryX=0.5;entryY=0;entryDx=0;entryDy=0;exitX=0.5;exitY=1;exitDx=0;exitDy=0;" edge="1" parent="1" source="yN31cZQmIMzdVHUuI0S--135" target="yN31cZQmIMzdVHUuI0S--117">
          <mxGeometry width="50" height="50" relative="1" as="geometry">
            <mxPoint x="410" y="180" as="sourcePoint" />
            <mxPoint x="500" y="220" as="targetPoint" />
            <Array as="points" />
          </mxGeometry>
        </mxCell>
        <mxCell id="yN31cZQmIMzdVHUuI0S--150" value="" style="endArrow=none;html=1;rounded=0;entryX=0.5;entryY=0;entryDx=0;entryDy=0;exitX=0.5;exitY=1;exitDx=0;exitDy=0;" edge="1" parent="1" source="yN31cZQmIMzdVHUuI0S--137" target="yN31cZQmIMzdVHUuI0S--117">
          <mxGeometry width="50" height="50" relative="1" as="geometry">
            <mxPoint x="410" y="180" as="sourcePoint" />
            <mxPoint x="500" y="220" as="targetPoint" />
            <Array as="points" />
          </mxGeometry>
        </mxCell>
        <mxCell id="yN31cZQmIMzdVHUuI0S--159" value="" style="endArrow=none;html=1;rounded=0;entryX=0.5;entryY=1;entryDx=0;entryDy=0;exitX=0.5;exitY=0;exitDx=0;exitDy=0;" edge="1" parent="1">
          <mxGeometry width="50" height="50" relative="1" as="geometry">
            <mxPoint x="790" y="500" as="sourcePoint" />
            <mxPoint x="790" y="460" as="targetPoint" />
            <Array as="points" />
          </mxGeometry>
        </mxCell>
        <mxCell id="yN31cZQmIMzdVHUuI0S--160" value="" style="endArrow=none;html=1;rounded=0;entryX=0.5;entryY=1;entryDx=0;entryDy=0;exitX=0.5;exitY=0;exitDx=0;exitDy=0;" edge="1" parent="1">
          <mxGeometry width="50" height="50" relative="1" as="geometry">
            <mxPoint x="880" y="500" as="sourcePoint" />
            <mxPoint x="790" y="460" as="targetPoint" />
            <Array as="points" />
          </mxGeometry>
        </mxCell>
        <mxCell id="yN31cZQmIMzdVHUuI0S--161" value="" style="endArrow=none;html=1;rounded=0;entryX=0.5;entryY=0;entryDx=0;entryDy=0;exitX=0.5;exitY=1;exitDx=0;exitDy=0;" edge="1" parent="1">
          <mxGeometry width="50" height="50" relative="1" as="geometry">
            <mxPoint x="790" y="460" as="sourcePoint" />
            <mxPoint x="700" y="500" as="targetPoint" />
            <Array as="points" />
          </mxGeometry>
        </mxCell>
        <mxCell id="yN31cZQmIMzdVHUuI0S--162" value="预约" style="rhombus;whiteSpace=wrap;html=1;" vertex="1" parent="1">
          <mxGeometry x="740" y="310" width="100" height="60" as="geometry" />
        </mxCell>
        <mxCell id="yN31cZQmIMzdVHUuI0S--163" value="" style="endArrow=none;html=1;rounded=0;entryX=0.5;entryY=1;entryDx=0;entryDy=0;" edge="1" parent="1" target="yN31cZQmIMzdVHUuI0S--162">
          <mxGeometry width="50" height="50" relative="1" as="geometry">
            <mxPoint x="790" y="400" as="sourcePoint" />
            <mxPoint x="800" y="230" as="targetPoint" />
            <Array as="points" />
          </mxGeometry>
        </mxCell>
        <mxCell id="yN31cZQmIMzdVHUuI0S--164" value="" style="endArrow=none;html=1;rounded=0;entryX=0.5;entryY=1;entryDx=0;entryDy=0;exitX=0.5;exitY=0;exitDx=0;exitDy=0;" edge="1" parent="1" source="yN31cZQmIMzdVHUuI0S--162">
          <mxGeometry width="50" height="50" relative="1" as="geometry">
            <mxPoint x="790" y="400" as="sourcePoint" />
            <mxPoint x="790" y="280" as="targetPoint" />
            <Array as="points" />
          </mxGeometry>
        </mxCell>
        <mxCell id="yN31cZQmIMzdVHUuI0S--168" value="1" style="text;html=1;strokeColor=none;fillColor=none;align=center;verticalAlign=middle;whiteSpace=wrap;rounded=0;" vertex="1" parent="1">
          <mxGeometry x="780" y="280" width="60" height="30" as="geometry" />
        </mxCell>
        <mxCell id="yN31cZQmIMzdVHUuI0S--169" value="n" style="text;html=1;strokeColor=none;fillColor=none;align=center;verticalAlign=middle;whiteSpace=wrap;rounded=0;" vertex="1" parent="1">
          <mxGeometry x="780" y="370" width="60" height="30" as="geometry" />
        </mxCell>
        <mxCell id="yN31cZQmIMzdVHUuI0S--182" value="订单" style="rounded=1;whiteSpace=wrap;html=1;fillColor=#f5f5f5;fontColor=#333333;strokeColor=#666666;strokeWidth=2;" vertex="1" parent="1">
          <mxGeometry x="1032" y="400" width="100" height="60" as="geometry" />
        </mxCell>
        <mxCell id="yN31cZQmIMzdVHUuI0S--183" value="药品名" style="ellipse;whiteSpace=wrap;html=1;" vertex="1" parent="1">
          <mxGeometry x="952" y="500" width="80" height="40" as="geometry" />
        </mxCell>
        <mxCell id="yN31cZQmIMzdVHUuI0S--184" value="总金额" style="ellipse;whiteSpace=wrap;html=1;" vertex="1" parent="1">
          <mxGeometry x="1042" y="500" width="80" height="40" as="geometry" />
        </mxCell>
        <mxCell id="yN31cZQmIMzdVHUuI0S--185" value="用户名" style="ellipse;whiteSpace=wrap;html=1;" vertex="1" parent="1">
          <mxGeometry x="1132" y="500" width="80" height="40" as="geometry" />
        </mxCell>
        <mxCell id="yN31cZQmIMzdVHUuI0S--186" value="" style="endArrow=none;html=1;rounded=0;entryX=0.5;entryY=1;entryDx=0;entryDy=0;exitX=0.5;exitY=0;exitDx=0;exitDy=0;" edge="1" source="yN31cZQmIMzdVHUuI0S--184" target="yN31cZQmIMzdVHUuI0S--182" parent="1">
          <mxGeometry width="50" height="50" relative="1" as="geometry">
            <mxPoint x="1182" y="190" as="sourcePoint" />
            <mxPoint x="1092" y="230" as="targetPoint" />
            <Array as="points" />
          </mxGeometry>
        </mxCell>
        <mxCell id="yN31cZQmIMzdVHUuI0S--187" value="" style="endArrow=none;html=1;rounded=0;entryX=0.5;entryY=1;entryDx=0;entryDy=0;exitX=0.5;exitY=0;exitDx=0;exitDy=0;" edge="1" source="yN31cZQmIMzdVHUuI0S--185" target="yN31cZQmIMzdVHUuI0S--182" parent="1">
          <mxGeometry width="50" height="50" relative="1" as="geometry">
            <mxPoint x="1182" y="190" as="sourcePoint" />
            <mxPoint x="1092" y="230" as="targetPoint" />
            <Array as="points" />
          </mxGeometry>
        </mxCell>
        <mxCell id="yN31cZQmIMzdVHUuI0S--188" value="" style="endArrow=none;html=1;rounded=0;entryX=0.5;entryY=0;entryDx=0;entryDy=0;exitX=0.5;exitY=1;exitDx=0;exitDy=0;" edge="1" source="yN31cZQmIMzdVHUuI0S--182" target="yN31cZQmIMzdVHUuI0S--183" parent="1">
          <mxGeometry width="50" height="50" relative="1" as="geometry">
            <mxPoint x="1182" y="190" as="sourcePoint" />
            <mxPoint x="1092" y="230" as="targetPoint" />
            <Array as="points" />
          </mxGeometry>
        </mxCell>
        <mxCell id="yN31cZQmIMzdVHUuI0S--189" value="医嘱" style="rounded=0;whiteSpace=wrap;html=1;fillColor=#f5f5f5;fontColor=#333333;strokeColor=#666666;strokeWidth=2;" vertex="1" parent="1">
          <mxGeometry x="1032" y="400" width="100" height="60" as="geometry" />
        </mxCell>
        <mxCell id="yN31cZQmIMzdVHUuI0S--190" value="添加" style="rhombus;whiteSpace=wrap;html=1;" vertex="1" parent="1">
          <mxGeometry x="882" y="405" width="100" height="60" as="geometry" />
        </mxCell>
        <mxCell id="yN31cZQmIMzdVHUuI0S--191" value="" style="endArrow=none;html=1;rounded=0;entryX=1;entryY=0.5;entryDx=0;entryDy=0;exitX=0;exitY=0.5;exitDx=0;exitDy=0;" edge="1" target="yN31cZQmIMzdVHUuI0S--190" parent="1">
          <mxGeometry width="50" height="50" relative="1" as="geometry">
            <mxPoint x="1032" y="435" as="sourcePoint" />
            <mxPoint x="792" y="405" as="targetPoint" />
            <Array as="points" />
          </mxGeometry>
        </mxCell>
        <mxCell id="yN31cZQmIMzdVHUuI0S--192" value="" style="endArrow=none;html=1;rounded=0;entryX=1;entryY=0.5;entryDx=0;entryDy=0;exitX=0;exitY=0.5;exitDx=0;exitDy=0;" edge="1" source="yN31cZQmIMzdVHUuI0S--190" parent="1">
          <mxGeometry width="50" height="50" relative="1" as="geometry">
            <mxPoint x="702" y="365" as="sourcePoint" />
            <mxPoint x="842" y="435" as="targetPoint" />
            <Array as="points" />
          </mxGeometry>
        </mxCell>
        <mxCell id="yN31cZQmIMzdVHUuI0S--193" value="1" style="text;html=1;strokeColor=none;fillColor=none;align=center;verticalAlign=middle;whiteSpace=wrap;rounded=0;" vertex="1" parent="1">
          <mxGeometry x="972" y="405" width="60" height="30" as="geometry" />
        </mxCell>
        <mxCell id="yN31cZQmIMzdVHUuI0S--194" value="1" style="text;html=1;strokeColor=none;fillColor=none;align=center;verticalAlign=middle;whiteSpace=wrap;rounded=0;" vertex="1" parent="1">
          <mxGeometry x="832" y="405" width="60" height="30" as="geometry" />
        </mxCell>
        <mxCell id="yN31cZQmIMzdVHUuI0S--200" value="用户名" style="ellipse;whiteSpace=wrap;html=1;" vertex="1" parent="1">
          <mxGeometry x="660" y="500" width="80" height="40" as="geometry" />
        </mxCell>
        <mxCell id="yN31cZQmIMzdVHUuI0S--205" value="医生名" style="ellipse;whiteSpace=wrap;html=1;" vertex="1" parent="1">
          <mxGeometry x="660" y="140" width="80" height="40" as="geometry" />
        </mxCell>
        <mxCell id="yN31cZQmIMzdVHUuI0S--232" value="用户名" style="ellipse;whiteSpace=wrap;html=1;" vertex="1" parent="1">
          <mxGeometry x="660" y="500" width="80" height="40" as="geometry" />
        </mxCell>
        <mxCell id="yN31cZQmIMzdVHUuI0S--237" value="医生名" style="ellipse;whiteSpace=wrap;html=1;" vertex="1" parent="1">
          <mxGeometry x="660" y="140" width="80" height="40" as="geometry" />
        </mxCell>
        <mxCell id="yN31cZQmIMzdVHUuI0S--265" value="用户名" style="ellipse;whiteSpace=wrap;html=1;" vertex="1" parent="1">
          <mxGeometry x="660" y="500" width="80" height="40" as="geometry" />
        </mxCell>
        <mxCell id="yN31cZQmIMzdVHUuI0S--270" value="医生名" style="ellipse;whiteSpace=wrap;html=1;" vertex="1" parent="1">
          <mxGeometry x="660" y="140" width="80" height="40" as="geometry" />
        </mxCell>
        <mxCell id="yN31cZQmIMzdVHUuI0S--293" value="科室" style="rounded=0;whiteSpace=wrap;html=1;fillColor=#f5f5f5;fontColor=#333333;strokeColor=#666666;strokeWidth=2;" vertex="1" parent="1">
          <mxGeometry x="1030" y="220" width="100" height="60" as="geometry" />
        </mxCell>
        <mxCell id="yN31cZQmIMzdVHUuI0S--294" value="医生人数" style="ellipse;whiteSpace=wrap;html=1;" vertex="1" parent="1">
          <mxGeometry x="1040" y="140" width="80" height="40" as="geometry" />
        </mxCell>
        <mxCell id="yN31cZQmIMzdVHUuI0S--295" value="科室简介" style="ellipse;whiteSpace=wrap;html=1;" vertex="1" parent="1">
          <mxGeometry x="1130" y="140" width="80" height="40" as="geometry" />
        </mxCell>
        <mxCell id="yN31cZQmIMzdVHUuI0S--296" value="科室名称" style="ellipse;whiteSpace=wrap;html=1;" vertex="1" parent="1">
          <mxGeometry x="950" y="140" width="80" height="40" as="geometry" />
        </mxCell>
        <mxCell id="yN31cZQmIMzdVHUuI0S--298" value="就职" style="rhombus;whiteSpace=wrap;html=1;" vertex="1" parent="1">
          <mxGeometry x="880" y="220" width="100" height="60" as="geometry" />
        </mxCell>
        <mxCell id="yN31cZQmIMzdVHUuI0S--299" value="" style="endArrow=none;html=1;rounded=0;entryX=1;entryY=0.5;entryDx=0;entryDy=0;exitX=0;exitY=0.5;exitDx=0;exitDy=0;" edge="1" parent="1" target="yN31cZQmIMzdVHUuI0S--298">
          <mxGeometry width="50" height="50" relative="1" as="geometry">
            <mxPoint x="1030" y="250" as="sourcePoint" />
            <mxPoint x="790" y="220" as="targetPoint" />
            <Array as="points" />
          </mxGeometry>
        </mxCell>
        <mxCell id="yN31cZQmIMzdVHUuI0S--300" value="" style="endArrow=none;html=1;rounded=0;entryX=1;entryY=0.5;entryDx=0;entryDy=0;exitX=0;exitY=0.5;exitDx=0;exitDy=0;" edge="1" parent="1" source="yN31cZQmIMzdVHUuI0S--298">
          <mxGeometry width="50" height="50" relative="1" as="geometry">
            <mxPoint x="700" y="180" as="sourcePoint" />
            <mxPoint x="840" y="250" as="targetPoint" />
            <Array as="points" />
          </mxGeometry>
        </mxCell>
        <mxCell id="yN31cZQmIMzdVHUuI0S--301" value="" style="endArrow=none;html=1;rounded=0;entryX=0.5;entryY=0;entryDx=0;entryDy=0;exitX=0.5;exitY=1;exitDx=0;exitDy=0;" edge="1" parent="1">
          <mxGeometry width="50" height="50" relative="1" as="geometry">
            <mxPoint x="990" y="180" as="sourcePoint" />
            <mxPoint x="1080" y="220" as="targetPoint" />
            <Array as="points" />
          </mxGeometry>
        </mxCell>
        <mxCell id="yN31cZQmIMzdVHUuI0S--302" value="" style="edgeStyle=orthogonalEdgeStyle;rounded=0;orthogonalLoop=1;jettySize=auto;html=1;endArrow=none;endFill=0;" edge="1" parent="1">
          <mxGeometry relative="1" as="geometry">
            <mxPoint x="1080" y="220" as="sourcePoint" />
            <mxPoint x="1080" y="180" as="targetPoint" />
          </mxGeometry>
        </mxCell>
        <mxCell id="yN31cZQmIMzdVHUuI0S--303" value="" style="endArrow=none;html=1;rounded=0;entryX=0.5;entryY=0;entryDx=0;entryDy=0;exitX=0.5;exitY=1;exitDx=0;exitDy=0;" edge="1" parent="1">
          <mxGeometry width="50" height="50" relative="1" as="geometry">
            <mxPoint x="1170" y="180" as="sourcePoint" />
            <mxPoint x="1080" y="220" as="targetPoint" />
            <Array as="points" />
          </mxGeometry>
        </mxCell>
        <mxCell id="yN31cZQmIMzdVHUuI0S--304" value="n" style="text;html=1;strokeColor=none;fillColor=none;align=center;verticalAlign=middle;whiteSpace=wrap;rounded=0;" vertex="1" parent="1">
          <mxGeometry x="840" y="220" width="60" height="30" as="geometry" />
        </mxCell>
        <mxCell id="yN31cZQmIMzdVHUuI0S--305" value="n" style="text;html=1;strokeColor=none;fillColor=none;align=center;verticalAlign=middle;whiteSpace=wrap;rounded=0;" vertex="1" parent="1">
          <mxGeometry x="970" y="220" width="60" height="30" as="geometry" />
        </mxCell>
      </root>
    </mxGraphModel>
  </diagram>
</mxfile>
